<svg width="22" height="22" viewBox="0 0 22 22" fill="none" xmlns="http://www.w3.org/2000/svg"><path fill-rule="evenodd" clip-rule="evenodd" d="M8.9 5.5c0-.131.067-.415.342-.67.265-.245.78-.514 1.758-.514s1.493.27 1.758.515c.275.254.342.538.342.669h1.3c0-.48-.208-1.114-.758-1.623-.56-.519-1.42-.86-2.642-.86s-2.082.341-2.642.86C7.808 4.387 7.6 5.02 7.6 5.5zm0 0v1.415h4.2V5.5h1.3v1.415h2.164a.65.65 0 0 1 .65.65v8.669c0 .502-.2.983-.557 1.337a1.9 1.9 0 0 1-1.341.551h-8.74a1.9 1.9 0 0 1-1.34-.551 1.88 1.88 0 0 1-.558-1.337V7.565a.65.65 0 0 1 .65-.65H7.6V5.5zm-1.3 4.583V8.215H5.978v8.019c0 .154.062.303.174.414s.264.174.425.174h8.739c.16 0 .313-.063.425-.174a.58.58 0 0 0 .174-.414V8.215H14.4v1.868h-1.3V8.215H8.9v1.868z" fill="#fff"/></svg>