<svg width="23" height="23" viewBox="0 0 23 23" fill="none" xmlns="http://www.w3.org/2000/svg"><path d="M16.531 17.25c-2.587 0-3.615-3.001-4.61-5.904-.94-2.751-1.916-5.596-4.015-5.596a2.47 2.47 0 0 0-2.194 1.668L4.348 6.96c.037-.107.914-2.647 3.558-2.647 3.127 0 4.321 3.489 5.377 6.567.868 2.537 1.689 4.932 3.248 4.932a2.47 2.47 0 0 0 2.195-1.668l1.362.458c-.036.108-.913 2.648-3.557 2.648" fill="#8C61FF"/><path d="M2.875 20.125v-7.906h1.438V10.78H2.875V1.438H1.438v18.687a1.44 1.44 0 0 0 1.437 1.438h18.688v-1.438z" fill="#8C61FF"/><path d="M5.75 10.781h1.438v1.438H5.75zm2.875 0h1.438v1.438H8.625zm5.75 0h1.438v1.438h-1.438zm2.875 0h1.438v1.438H17.25zm2.875 0h1.438v1.438h-1.438z" fill="#8C61FF"/></svg>