<svg width="16" height="17" viewBox="0 0 16 17" fill="none" xmlns="http://www.w3.org/2000/svg"><path d="M5.75 7a.25.25 0 1 1-.5 0 .25.25 0 0 1 .5 0m0 0H5.5m2.75 0a.25.25 0 1 1-.5 0 .25.25 0 0 1 .5 0m0 0H8m2.75 0a.25.25 0 1 1-.5 0 .25.25 0 0 1 .5 0m0 0h-.25m-9 2.007c0 1.066.749 1.996 1.805 2.151q1.086.16 2.195.246V14.5l2.79-2.789a.76.76 0 0 1 .518-.221 32 32 0 0 0 3.887-.332c1.056-.155 1.805-1.084 1.805-2.152V4.994c0-1.068-.749-1.997-1.805-2.152A32 32 0 0 0 8 2.5a32 32 0 0 0-4.695.342C2.249 2.997 1.5 3.927 1.5 4.994z" stroke="#282828" stroke-width="1.5" stroke-linecap="round" stroke-linejoin="round"/></svg>