<svg width="23" height="23" viewBox="0 0 23 23" fill="none" xmlns="http://www.w3.org/2000/svg"><g clip-path="url(#a)"><path d="M22.296.466a.696.696 0 0 0-1.312.459c1.068 3.07-1.052 5.363-2.669 6.591l-.653-.936c-.22-.314-.71-.575-1.093-.58l-3.666.017a2.5 2.5 0 0 0-1.261.388L.838 13.98a1.16 1.16 0 0 0-.284 1.615l4.91 7.024c.368.524.955.46 1.48.095l10.803-7.577c.31-.22.67-.693.796-1.055l1.147-3.617c.127-.361.05-.912-.17-1.226l-.398-.57c2.172-1.664 4.426-4.605 3.174-8.203M17.27 11.227a1.847 1.847 0 0 1-2.576-.455 1.856 1.856 0 0 1 .454-2.583 1.85 1.85 0 0 1 2.148.02 7 7 0 0 1-.568.316.697.697 0 0 0 .298 1.326q.15 0 .295-.068.337-.158.712-.38a1.86 1.86 0 0 1-.763 1.824" fill="#72B9FF"/></g><defs><clipPath id="a"><path fill="#fff" d="M0 0h23v23H0z"/></clipPath></defs></svg>