<svg width="16" height="17" viewBox="0 0 16 17" fill="none" xmlns="http://www.w3.org/2000/svg"><path d="M7.653 2.833a.375.375 0 0 1 .694 0L9.763 6.24a.38.38 0 0 0 .317.23l3.679.295a.375.375 0 0 1 .214.658L11.17 9.825a.38.38 0 0 0-.121.371l.856 3.59a.375.375 0 0 1-.56.407l-3.15-1.924a.38.38 0 0 0-.39 0l-3.15 1.924a.374.374 0 0 1-.56-.406l.856-3.591a.38.38 0 0 0-.121-.371L2.027 7.423a.375.375 0 0 1 .214-.658L5.92 6.47a.38.38 0 0 0 .317-.23z" stroke="#D48D3B" stroke-width="1.5" stroke-linecap="round" stroke-linejoin="round"/></svg>