<svg width="28" height="28" viewBox="0 0 28 28" fill="none" xmlns="http://www.w3.org/2000/svg"><path fill-rule="evenodd" clip-rule="evenodd" d="M9.656 9.333a3.859 3.859 0 1 1 7.718 0 3.859 3.859 0 0 1-7.718 0Zm3.859-5.474a5.474 5.474 0 1 0 0 10.948 5.474 5.474 0 0 0 0-10.948ZM8.453 19.317a3.859 3.859 0 0 1 2.729-1.13h4.666a3.859 3.859 0 0 1 3.86 3.859v2.333a.808.808 0 0 0 1.615 0v-2.333a5.474 5.474 0 0 0-5.475-5.474h-4.666a5.474 5.474 0 0 0-5.475 5.474v2.333a.808.808 0 0 0 1.616 0v-2.333a3.86 3.86 0 0 1 1.13-2.729Z" fill="#282828"/></svg>